<svg width="512" height="512" viewBox="0 0 512 512" fill="none" xmlns="http://www.w3.org/2000/svg">
<rect width="512" height="512" rx="42" fill="#F8F8FF"/>
<path d="M418.5 462H93.5C72.7891 462 56 442.812 56 419.143V104.857C56 81.1875 72.7891 62 93.5 62H418.5C439.211 62 456 81.1875 456 104.857V419.143C456 442.812 439.211 462 418.5 462ZM156 140.571C138.741 140.571 124.75 156.562 124.75 176.286C124.75 196.01 138.741 212 156 212C173.259 212 187.25 196.01 187.25 176.286C187.25 156.562 173.259 140.571 156 140.571ZM156 226.286C138.741 226.286 124.75 242.276 124.75 262C124.75 281.724 138.741 297.714 156 297.714C173.259 297.714 187.25 281.724 187.25 262C187.25 242.276 173.259 226.286 156 226.286ZM156 312C138.741 312 124.75 327.99 124.75 347.714C124.75 367.438 138.741 383.429 156 383.429C173.259 383.429 187.25 367.438 187.25 347.714C187.25 327.99 173.259 312 156 312ZM381 190.571V162C381 156.083 376.802 151.286 371.625 151.286H215.375C210.198 151.286 206 156.083 206 162V190.571C206 196.488 210.198 201.286 215.375 201.286H371.625C376.802 201.286 381 196.488 381 190.571ZM381 276.286V247.714C381 241.797 376.802 237 371.625 237H215.375C210.198 237 206 241.797 206 247.714V276.286C206 282.203 210.198 287 215.375 287H371.625C376.802 287 381 282.203 381 276.286ZM381 362V333.429C381 327.512 376.802 322.714 371.625 322.714H215.375C210.198 322.714 206 327.512 206 333.429V362C206 367.917 210.198 372.714 215.375 372.714H371.625C376.802 372.714 381 367.917 381 362Z" fill="#646FF0"/>
</svg>
