<svg width="1000" height="1000" viewBox="0 0 1000 1000" fill="none" xmlns="http://www.w3.org/2000/svg">
<g clip-path="url(#clip0_106_5)">
<rect x="-12" y="-24" width="1024" height="1024" rx="42" fill="#F8F8FF"/>
<path d="M825 900H175C133.578 900 100 861.625 100 814.286V185.714C100 138.375 133.578 100 175 100H825C866.422 100 900 138.375 900 185.714V814.286C900 861.625 866.422 900 825 900ZM300 257.143C265.483 257.143 237.5 289.123 237.5 328.571C237.5 368.02 265.483 400 300 400C334.517 400 362.5 368.02 362.5 328.571C362.5 289.123 334.517 257.143 300 257.143ZM300 428.571C265.483 428.571 237.5 460.552 237.5 500C237.5 539.448 265.483 571.429 300 571.429C334.517 571.429 362.5 539.448 362.5 500C362.5 460.552 334.517 428.571 300 428.571ZM300 600C265.483 600 237.5 631.98 237.5 671.429C237.5 710.877 265.483 742.857 300 742.857C334.517 742.857 362.5 710.877 362.5 671.429C362.5 631.98 334.517 600 300 600ZM750 357.143V300C750 288.166 741.605 278.571 731.25 278.571H418.75C408.395 278.571 400 288.166 400 300V357.143C400 368.977 408.395 378.571 418.75 378.571H731.25C741.605 378.571 750 368.977 750 357.143ZM750 528.571V471.429C750 459.595 741.605 450 731.25 450H418.75C408.395 450 400 459.595 400 471.429V528.571C400 540.405 408.395 550 418.75 550H731.25C741.605 550 750 540.405 750 528.571ZM750 700V642.857C750 631.023 741.605 621.429 731.25 621.429H418.75C408.395 621.429 400 631.023 400 642.857V700C400 711.834 408.395 721.429 418.75 721.429H731.25C741.605 721.429 750 711.834 750 700Z" fill="#646FF0"/>
</g>
<defs>
<clipPath id="clip0_106_5">
<rect width="1000" height="1000" rx="50" fill="white"/>
</clipPath>
</defs>
</svg>
